# xmcd
#
# Track frame offsets:
#	150
#	11817
#	22800
#	36927
#	50175
#	64045
#	76785
#	91685
#	103352
#	113617
#	125375
#	137872
#	154715
#	168450
#
# Disc length: 2415 seconds
# Revision: 1
# Processed by: cddbd v1.5.2PL0 Copyright (c) Steve Scherf et al.
# Submitted via: dBpowerAMP V12.0
#
DISCID=b0096d0e
DTITLE=Arthur "Big Boy" Spires - Wrapped in My Baby
DYEAR=1989
DGENRE=Blues
TTITLE0=Let's Get High
TTITLE1=You Messed Up
TTITLE2=I Wish My Baby
TTITLE3=Move It on Out and Go
TTITLE4=May Bea
TTITLE5=Treat Me the Same
TTITLE6=Baby, You Know That's Wrong
TTITLE7=Let's Get High
TTITLE8=You Gone Away
TTITLE9=She Walked Right In
TTITLE10=Dark and Stormy Night
TTITLE11=Moody This Morning
TTITLE12=You Can't Tell
TTITLE13=Wrapped in My Baby
EXTD=
EXTT0=
EXTT1=
EXTT2=
EXTT3=
EXTT4=
EXTT5=
EXTT6=
EXTT7=
EXTT8=
EXTT9=
EXTT10=
EXTT11=
EXTT12=
EXTT13=
PLAYORDER=
